<svg xmlns="http://www.w3.org/2000/svg" width="24" height="76">
  
  <path class="ind_al" fill="#DDDDDC" d="M12 .7C7.3.7 3.5 4.5 3.5 9.2s3.8 8.5 8.5 8.5 8.5-3.8 8.5-8.5S16.7.7 12 .7"/>
  <path stroke="#8E8E8E" stroke-width="1.5" stroke-miterlimit="10" stroke-linecap="round" stroke-linejoin="round" fill="none" d="M12 17.9v11.7"/>
  
  <text fill="#606060" stroke="none" font-family="'Calibri'" font-weight="bold" x="7" y="13" font-size="11">M</text>
  
  <path stroke="#8E8E8E" stroke-width="1.5" stroke-miterlimit="10" stroke-linecap="round" stroke-linejoin="round" fill="none" d="M12,0.8c-4.7,0-8.5,3.8-8.5,8.5s3.8,8.5,8.5,8.5	s8.5-3.8,8.5-8.5S16.7,0.8,12,0.8"/>
  <path fill="#DDDDDC" d="M.8 32.2v41c0 1.1.9 2.1 2.1 2.1h18.3c1.1 0 2.1-.9 2.1-2.1v-41c0-1.1-.9-2.1-2.1-2.1H2.9c-1.2 0-2.1.9-2.1 2.1z"/>
  <path stroke="#8E8E8E" stroke-width="1.5" stroke-miterlimit="10" stroke-linecap="round" stroke-linejoin="round" fill="none" d="M1,32v41c0,1.1,0.8,2,2,2h18c1.1,0,2-0.8,2-2V32	c0-1.1-0.8-2-2-2H3C1.8,30,1,30.8,1,32z"/>
  
  <path class="damper_closed" stroke="#757575" fill="#757575" stroke-width="1.5" stroke-miterlimit="10" stroke-linecap="round" stroke-linejoin="round" d="M11.7,61.7h0.9c0.4,0,0.8-0.2,1-0.4c0.3-0.3,0.4-0.6,0.4-0.9V42.2c0-0.7-0.6-1.3-1.4-1.3h-1.1c-0.4,0-0.7,0.1-1,0.4	c-0.3,0.3-0.4,0.5-0.4,0.9v18.2C10.2,61,10.9,61.7,11.7,61.7z" visibility="hidden";/>
 <path class="damper_open" stroke="#757575" fill="#757575" stroke-width="1.5" stroke-miterlimit="10" stroke-linecap="round" stroke-linejoin="round" d="M11.7,61.7h0.9c0.4,0,0.8-0.2,1-0.4c0.3-0.3,0.4-0.6,0.4-0.9V42.2c0-0.7-0.6-1.3-1.4-1.3h-1.1c-0.4,0-0.7,0.1-1,0.4	c-0.3,0.3-0.4,0.5-0.4,0.9v18.2C10.2,61,10.9,61.7,11.7,61.7z" visibility="hidden"; transform="rotate(90 12 51.3)"/>  
<path class="damper_half" stroke="#757575" fill="#757575" stroke-width="1.5" stroke-miterlimit="10" stroke-linecap="round" stroke-linejoin="round" d="M11.7,61.7h0.9c0.4,0,0.8-0.2,1-0.4c0.3-0.3,0.4-0.6,0.4-0.9V42.2c0-0.7-0.6-1.3-1.4-1.3h-1.1c-0.4,0-0.7,0.1-1,0.4	c-0.3,0.3-0.4,0.5-0.4,0.9v18.2C10.2,61,10.9,61.7,11.7,61.7z" visibility="hidden"; transform="rotate(45 12 51.3)"/>  


  <circle class="ind_on" fill="#DDDDDC" cx="12" cy="51.3" r="2.8"/>
  <circle stroke="#757575" stroke-width="1.5" stroke-miterlimit="10" stroke-linecap="round" stroke-linejoin="round" fill="none" cx="12" cy="51.3" r="2.8"/>
  
</svg>