<svg xmlns="http://www.w3.org/2000/svg" width="12.1" height="16.3">
 
  <path class="ind" fill="#FFF" d="M11,10c0,0.4,0,0.8-0.1,1.2c-0.2,1.4-0.8,2.6-1.9,3.2c-1.3,0.7-2.6,0.8-3.9,0.1c-1-0.5-1.7-1.2-2.4-2.2	c-0.5-0.8-1-1.6-1.6-2.4C1.1,9.9,1,9.7,1,9.6C0.8,9.3,0.9,9,1.1,8.8c0.2-0.2,0.3-0.4,0.6-0.3c0.5,0.1,0.9,0.6,1.2,1.1	C3,9.7,3.1,9.9,3.2,10c0.4,0.5,1,0.7,1.4,0.4c0.2-0.1,0.3-0.3,0.2-0.5C4.8,9.7,4.7,9.6,4.5,9.7c0-0.1,0-0.1,0-0.2c0-1.7,0-4.3,0-6	c0-0.2,0-0.4,0-0.5c0.1-0.4,0.2-0.6,0.5-0.5c0.3,0,0.5,0.2,0.6,0.6c0,0.1,0,0.3,0,0.4c0,1.2,0,2.4,0,3.6c0,0.1,0,0.3,0,0.4	c0,0.2,0.2,0.3,0.3,0.3c0.2,0,0.3-0.1,0.3-0.4c0-0.1,0-0.3,0-0.4c0-1.6,0-3.1,0-4.7c0-0.2,0-0.3,0-0.5c0.1-0.4,0.2-0.6,0.6-0.6	c0.3,0,0.5,0.2,0.5,0.6c0,0.1,0,0.3,0,0.4c0,1.6,0,3.2,0,4.8c0,0.2,0,0.3,0,0.5c0,0.2,0.2,0.3,0.3,0.3c0.2,0,0.3-0.1,0.3-0.4	c0-0.1,0-0.3,0-0.4c0-1.4,0-2.7,0-4.1c0-0.1,0-0.3,0-0.4c0.1-0.4,0.2-0.6,0.6-0.6c0.3,0,0.5,0.2,0.6,0.6c0,0.1,0,0.3,0,0.4	c0,1.6,0,3.1,0,4.7c0,0.3,0,0.6,0.2,0.9C9.8,8.4,9.9,8.4,9.9,8c0-1,0-2,0-3c0-0.1,0-0.3,0-0.4c0-0.4,0.2-0.6,0.5-0.6	c0.3,0,0.5,0.2,0.6,0.6c0,0.1,0,0.3,0,0.4C11,6.6,11,8.3,11,10z"/>
  <path fill="#8E8E8E" d="M11.7,4.7c0-1-0.5-1.6-1.4-1.5c-0.1,0-0.3,0-0.4,0c0-0.7,0-1.3-0.4-1.8C9,1,8.5,1.1,8,1.2 C7.8,0.6,7.3,0.3,6.8,0.3c-0.6,0.1-1,0.6-1.1,1.3c-0.1,0-0.2,0-0.2,0c-1-0.2-1.5,0.3-1.6,1.5c0,0,0,0.1,0,0.1c0,1.8,0,4.5,0,6.3 c0,0,0,0,0,0C3.8,9.6,3.7,9.5,3.7,9.4C3.6,9.3,3.5,9.2,3.4,9.1C3.1,8.5,2.6,8,2.1,7.8C1.4,7.5,1,7.7,0.6,8.3 c-0.4,0.5-0.4,1.2-0.1,1.9C1.3,11.5,2,12.8,3,13.9c1.4,1.5,3,2.2,4.8,1.9c1.4-0.3,2.5-1,3.2-2.6c0.4-0.9,0.6-1.8,0.6-2.8 C11.7,8.5,11.7,6.6,11.7,4.7z M11,10c0,0.4,0,0.8-0.1,1.2c-0.2,1.4-0.8,2.6-1.9,3.2c-1.3,0.7-2.6,0.8-3.9,0.1 c-1-0.5-1.7-1.2-2.4-2.2c-0.5-0.8-1-1.6-1.6-2.4C1.1,9.9,1,9.7,1,9.6C0.8,9.3,0.9,9,1.1,8.8c0.2-0.2,0.3-0.4,0.6-0.3 c0.5,0.1,0.9,0.6,1.2,1.1C3,9.7,3.1,9.9,3.2,10c0.4,0.5,1,0.7,1.4,0.4c0.2-0.1,0.3-0.3,0.2-0.5C4.8,9.7,4.7,9.6,4.5,9.7 c0-0.1,0-0.1,0-0.2c0-1.7,0-4.3,0-6c0-0.2,0-0.4,0-0.5c0.1-0.4,0.2-0.6,0.5-0.5c0.3,0,0.5,0.2,0.6,0.6c0,0.1,0,0.3,0,0.4 c0,1.2,0,2.4,0,3.6c0,0.1,0,0.3,0,0.4c0,0.2,0.2,0.3,0.3,0.3c0.2,0,0.3-0.1,0.3-0.4c0-0.1,0-0.3,0-0.4c0-1.6,0-3.1,0-4.7 c0-0.2,0-0.3,0-0.5c0.1-0.4,0.2-0.6,0.6-0.6c0.3,0,0.5,0.2,0.5,0.6c0,0.1,0,0.3,0,0.4c0,1.6,0,3.2,0,4.8c0,0.2,0,0.3,0,0.5 c0,0.2,0.2,0.3,0.3,0.3c0.2,0,0.3-0.1,0.3-0.4c0-0.1,0-0.3,0-0.4c0-1.4,0-2.7,0-4.1c0-0.1,0-0.3,0-0.4c0.1-0.4,0.2-0.6,0.6-0.6 c0.3,0,0.5,0.2,0.6,0.6c0,0.1,0,0.3,0,0.4c0,1.6,0,3.1,0,4.7c0,0.3,0,0.6,0.2,0.9C9.8,8.4,9.9,8.4,9.9,8c0-1,0-2,0-3 c0-0.1,0-0.3,0-0.4c0-0.4,0.2-0.6,0.5-0.6c0.3,0,0.5,0.2,0.6,0.6c0,0.1,0,0.3,0,0.4C11,6.6,11,8.3,11,10z"/>
  <path fill="#8E8E8E" d="M9.6,9.6C9.5,9.5,9.4,9.4,9.2,9.3C8.6,8.8,7.9,8.6,7.1,8.7c-0.2,0-0.3,0-0.5,0C6.4,8.7,6.1,8.8,5.8,8.9 C5.6,9,5.5,9.2,5.6,9.4c0,0.2,0.2,0.3,0.4,0.3c0.1,0,0.2-0.1,0.3-0.1c1-0.2,1.9-0.2,2.8,0.6c0,0,0.1,0.1,0.1,0.1 c0.2,0.1,0.3,0.1,0.4-0.1C9.7,9.9,9.7,9.8,9.6,9.6z"/>

  </svg>