<?xml version="1.0" encoding="UTF-8" standalone="no"?>
<svg
   xmlns="http://www.w3.org/2000/svg"
   xmlns:xlink="http://www.w3.org/1999/xlink"
   version="1.1"
   width="12.128"
   height="16.333"
   style="fill:#ffffff;stroke:#333333;stroke-width:0.5;stroke-linecap:round;stroke-linejoin:round;stroke-miterlimit:10;stroke-dasharray:none;stroke-opacity:1">
  <path
     d="m 4.9775502,15.476582 c -1.18649,-0.6749 -4.00241996,-4.051 -4.73273996,-7.3093999 0.16238,-2.0688 2.66472996,0.02 3.08549996,1.9630999 1.90284,1.6212 -0.34563,-7.7597999 0.68246,-8.3123999 1.75119,-1.00689999 1.58176,3.9477 1.84393,6.2169 0.0985,1.2532 -0.0485,-4.9848 0.009,-6.2232 -0.002,-2.10479969 1.54168,-2.05139969 1.86035,-0.079 0.20162,1.1429 9.7e-4,8.8875999 0.0974,5.6695 0.0908,-1.7646 0.13928,-5.8191 1.37674,-5.5543 1.2374898,0.2648 -0.0819,7.9545 0.51862,6.308 0.3083098,-1.6757 0.5329798,-4.5881 1.6817098,-4.3652 1.14873,0.223 -0.0734,5.2616 -0.33637,7.3580999 -0.26297,2.0966 -0.63999,3.132 -1.9849898,4.2249 -1.34501,1.0929 -2.91478,0.7779 -4.10127,0.103 z"
	 class="ind"/>
</svg>
