<svg xmlns="http://www.w3.org/2000/svg" width="18" height="27">
 
  <path fill="#DDDDDC" d="M0.7,26.2V15.4l16.5,10.7V15.4L0.7,26.2z"/>
  <path class="ind_on cmd ind_al" fill="#DDDDDC" d="M8.9,1c-3,0-5.4,2.6-5.4,5.6S5.9,12,8.9,12s5.4-2.4,5.4-5.4S11.9,1,8.9,1"/>
 
  <path fill="none" stroke="#8E8E8E" stroke-width="1.5" stroke-miterlimit="10" d="M8.9,0.8c-3,0-5.4,2.6-5.4,5.6s2.4,5.4,5.4,5.4	s5.4-2.4,5.4-5.4S11.9,0.8,8.9,0.8"/>
  <path fill="none" stroke="#8E8E8E" stroke-width="1.5" stroke-miterlimit="10" d="M8.9,20v-8.1"/>
  <path fill="none" stroke="#8E8E8E" stroke-width="1.5" stroke-linecap="round" stroke-linejoin="round" stroke-miterlimit="10" d="M0.8,26.2V15.4l16.5,10.7V15.4L0.8,26.2z"/>
  
  <text fill="#606060" stroke="none" font-family="'Calibri'" font-weight="bold" x="5.582" y="8.98" font-size="8">M</text>
</svg>