<svg xmlns:svg="http://www.w3.org/2000/svg" xmlns="http://www.w3.org/2000/svg" width="46.85" height="46.85" version="1.1">
  <path fill="#DDDDDC" d="M23.3.9C10.8.9.7 11 .7 23.5s10.1 22.6 22.6 22.6C35.8 46.1 46 36 46 23.5S35.8.9 23.3.9"/>
  <path d="M6.5957031 8.3808594C2.9674831 12.38882 0.69921875 17.656131 0.69921875 23.5c0 5.867267 2.28297875 11.154608 5.93750005 15.167969L44.539062 31.253906C45.434851 28.827025 46 26.238172 46 23.5 46 20.784837 45.440134 18.218372 44.558594 15.808594L6.5957031 8.3808594Z" style="fill:none;stroke-dasharray:none;stroke-miterlimit:4;stroke-opacity:1;stroke-width:1.5;stroke:#8e8e8e"/>
  <path stroke-miterlimit="10" d="m23.35 0.89999827c-12.5 0-22.6 10.09999973-22.6 22.59999973 0 12.5 10.1 22.6 22.6 22.6 12.5 0 22.7-10.1 22.7-22.6 0-12.5-10.2-22.59999973-22.7-22.59999973" style="fill:none;stroke-linecap:round;stroke-linejoin:round;stroke-miterlimit:10;stroke-width:1.5;stroke:#8e8e8e"/>
  <path d="M5.9016983 36.472544C1.0387988 29.991783 0.23972738 21.269914 3.8424142 13.995445 4.8319594 11.997376 6.4787405 9.5161138 6.9126429 9.3694246 7.0104685 9.3363528 15.328442 10.922007 25.397029 12.8931c10.068586 1.971094 18.376884 3.583807 18.462883 3.583807 0.233448 0 1.132998 4.049279 1.278918 5.756991 0.06997 0.818882 0.02896 2.292871-0.09113 3.275529-0.235074 1.923536-0.9355 4.802352-1.20965 4.971786-0.177901 0.109948-1.442017 0.364024-13.782588 2.770163-7.022086 1.369151-10.258835 2.002637-19.744956 3.864408-1.6882435 0.331339-3.1622318 0.60021-3.2755298 0.59749-0.1132982-0.0027-0.6232745-0.561046-1.1332809-1.24073z" class="ind" fill="#dddddc"/>
</svg>
