<svg xmlns="http://www.w3.org/2000/svg" width="19" height="19">
  
  <path class="ind" fill="#DDDDDC" d="M.8 2.4v14.3c0 .9.7 1.6 1.6 1.6h14.3c.9 0 1.6-.7 1.6-1.6V2.4c0-.9-.7-1.6-1.6-1.6H2.4C1.5.8.8 1.5.8 2.4z"/>
 
  <path stroke="#8E8E8E" stroke-width="1.5" stroke-miterlimit="10" stroke-linecap="round" stroke-linejoin="round" fill="none" d="M.8 2.4v14.3c0 .9.7 1.6 1.6 1.6h14.3c.9 0 1.6-.7 1.6-1.6V2.4c0-.9-.7-1.6-1.6-1.6H2.4C1.5.8.8 1.5.8 2.4z"/>
  <path stroke="#757575" stroke-width="1" stroke-miterlimit="10" stroke-linecap="round" stroke-linejoin="round" d="M15.6 3.4l-12 12"/>
  
  <text fill="#606060" stroke="none" font-family="'Calibri'" font-weight="bold" x="9" y="16" font-size="8">F2</text>
  <text fill="#606060" stroke="none" font-family="'Calibri'" font-weight="bold" x="3" y="8" font-size="8">F1</text>
  
</svg>