<svg xmlns="http://www.w3.org/2000/svg" width="24" height="48">
 
  <path fill="#DDDDDC" d="M.8 2.4v43c0 1 .8 1.8 1.8 1.8h18.9c1 0 1.8-.8 1.8-1.8v-43c0-1-.8-1.8-1.8-1.8H2.6C1.6.6.8 1.4.8 2.4z"/>
 
  <circle class="ind_cool" fill="#FFF" cx="12" cy="23.9" r="6.9"/>
  <circle stroke="#757575" stroke-width="1.5" stroke-miterlimit="10" stroke-linecap="round" stroke-linejoin="round" fill="none" cx="12" cy="23.9" r="6.9"/>
  
  <path stroke="#5285A2" stroke-width="2" stroke-miterlimit="10" stroke-linecap="round" stroke-linejoin="round" fill="none" d="M8.7 23.9h6.6"/>
  <path stroke="#8E8E8E" stroke-width="1.5" stroke-miterlimit="10" stroke-linecap="round" stroke-linejoin="round" fill="none" d="M.8 2.5v43c0 1 .8 1.8 1.8 1.8h18.9c1 0 1.8-.8 1.8-1.8v-43c0-1-.8-1.8-1.8-1.8H2.6C1.6.8.8 1.5.8 2.5z"/>
  
</svg>