<svg xmlns="http://www.w3.org/2000/svg" width="37" height="74">
  
  <path class="ind_al" fill="#DDDDDC" d="M33.8,37.4H19v36h14.6c1.4,0,2.6-1.2,2.6-2.6V39.7C36.1,38.4,35.1,37.4,33.8,37.4z"/>
  <path class="ind_fault" fill="#DDDDDC" d="M28.3,13.1c-3.8,0-6.8,3.1-6.8,6.8c0,3.8,3.1,6.8,6.8,6.8c3.8,0,6.8-3.1,6.8-6.8	C35.1,16.1,32.1,13.1,28.3,13.1"/>
  <path fill="#DDDDDC" d="M19,37.4H2.9c-1.2,0-2.2,1-2.2,2.2v31.3c0,1.4,1.1,2.5,2.5,2.5H19"/>
    
  <path fill="none" stroke="#8E8E8E" stroke-width="1.5" stroke-miterlimit="10" stroke-linecap="round" stroke-linejoin="round" d="M28,27v10"/>
  <path fill="none" stroke="#757575" stroke-width="1.5" stroke-miterlimit="10" stroke-linecap="round" stroke-linejoin="round" d="M4,56h11l-3-3"/>
  <path fill="none" stroke="#757575" stroke-width="1.5" stroke-miterlimit="10" stroke-linecap="round" stroke-linejoin="round" d="M15,56l-3,3"/>
  <path fill="none" stroke="#8E8E8E" stroke-width="1.5" stroke-miterlimit="10" stroke-linecap="round" stroke-linejoin="round" d="M10,37v7"/>
  <path fill="none" stroke="#8E8E8E" stroke-width="1.5" stroke-miterlimit="10" stroke-linecap="round" stroke-linejoin="round" d="M10,67v6"/>
  <path fill="none" stroke="#8E8E8E" stroke-width="1.5" stroke-miterlimit="10" stroke-linecap="round" stroke-linejoin="round" d="M16,37V16.9c0-1-0.8-1.9-1.9-1.9H10H5.6	C4.7,15,4,15.7,4,16.6V37"/>
  <path fill="none" stroke="#8E8E8E" stroke-width="1.5" stroke-miterlimit="10" stroke-linecap="round" stroke-linejoin="round" d="M28,13V8"/>
  <path fill="none" stroke="#8E8E8E" stroke-width="1.5" stroke-miterlimit="10" stroke-linecap="round" stroke-linejoin="round" d="M28,5V1h-5"/>
  <path fill="none" stroke="#8E8E8E" stroke-width="1.5" stroke-miterlimit="10" stroke-linecap="round" stroke-linejoin="round" d="M20,1h-3"/>
  <path fill="none" stroke="#8E8E8E" stroke-width="1.5" stroke-miterlimit="10" stroke-linecap="round" stroke-linejoin="round" d="M14,1h-4v4.8"/>
  
  <path class="damper" fill="#757575" d="M28.4,46.4h-0.7l0,0c-0.3,0-0.6,0.1-0.8,0.3c-0.2,0.2-0.3,0.5-0.3,0.8v16c0,0.6,0.5,1.1,1.1,1.1h0.9l0,0	c0.3,0,0.6-0.1,0.8-0.3c0.2-0.2,0.3-0.5,0.3-0.8v-16C29.6,46.9,29.1,46.4,28.4,46.4z"/>
 
  <circle class="ind_on" fill="#DDDDDC" cx="28.1" cy="55.6" r="2.2"/>
  <circle fill="none" stroke="#757575" stroke-width="1.5" stroke-miterlimit="10" stroke-linecap="round" stroke-linejoin="round" cx="28.1" cy="55.6" r="2.2"/>

  <path fill="none" stroke="#8E8E8E" stroke-width="1.5" stroke-miterlimit="10" stroke-linecap="round" stroke-linejoin="round" d="M36,70.9V39.2c0-1.2-1-2.2-2.2-2.2H19v36h14.9	C35,73,36,72,36,70.9z"/>
  <path fill="none" stroke="#8E8E8E" stroke-width="1.5" stroke-miterlimit="10" stroke-linecap="round" stroke-linejoin="round" d="M19,37H3c-1.1,0-2,0.9-2,2v31.7C1,72,2,73,3.3,73	H19"/>
  
  <path fill="#DADADA" d="M8,10.4c-1.2-2-2.1-3.7-2.2-3.8L5.7,6.5l0.5-0.2c1-0.5,1.9-0.8,3-0.9c0.5-0.1,1.9,0,2.4,0.1	c0.6,0.1,1.2,0.3,1.6,0.4c0.5,0.2,1.3,0.6,1.3,0.7c0,0-4.1,7.1-4.3,7.4h-0.1L8,10.4L8,10.4z"/>
  
  <path fill="none" stroke="#8E8E8E" stroke-width="1.5" stroke-miterlimit="10" stroke-linecap="round" stroke-linejoin="round" d="M5.8,6.8l4.3,7.4l4.3-7.4c0.1-0.2,0.1-0.5-0.2-0.7	c-2.6-1.4-5.7-1.4-8.3,0C5.7,6.3,5.6,6.6,5.8,6.8z"/>
  <path fill="none" stroke="#8E8E8E" stroke-width="1.5" stroke-miterlimit="10" stroke-linecap="round" stroke-linejoin="round" d="M28.3,13.1c-3.8,0-6.8,3.1-6.8,6.8	c0,3.8,3.1,6.8,6.8,6.8c3.8,0,6.8-3.1,6.8-6.8C35.1,16.1,32.1,13.1,28.3,13.1"/>
  
  <text fill="#606060" stroke="none" font-family="'Calibri'" font-weight="bold" x="24.3" y="22.5" font-size="9">M</text>
  
</svg>
