<svg xmlns="http://www.w3.org/2000/svg" width="12.6" height="12.6">

  <path class="ind" fill="#DDDDDC" d="M6.3,0.8c-3,0-5.5,2.5-5.5,5.5s2.5,5.5,5.5,5.5s5.5-2.5,5.5-5.5S9.3,0.8,6.3,0.8"/>
  
  <path stroke="#8E8E8E" stroke-width="1.5" stroke-miterlimit="10" stroke-linecap="round" stroke-linejoin="round" fill="none" d="M6.3,0.8c-3,0-5.5,2.5-5.5,5.5s2.5,5.5,5.5,5.5 s5.5-2.5,5.5-5.5S9.3,0.8,6.3,0.8"/>
  
  <path class="ind_on" fill="#DDDDDC" d="M6.3,3.5c-1.6,0-2.8,1.3-2.8,2.8s1.3,2.8,2.8,2.8c1.6,0,2.8-1.3,2.8-2.8S7.8,3.5,6.3,3.5"/>
  
</svg>