<svg xmlns="http://www.w3.org/2000/svg" width="11.94" height="22.9">

  <path class="ind" fill="#DDDDDC" d="M6.1,0.7C3,0.7,0.5,3.2,0.5,6.1c0,3.1,2.5,5.6,5.6,5.6c2.9,0,5.4-2.5,5.4-5.6C11.4,3.2,9,0.7,6.1,0.7"/>
  
  <path stroke="#8E8E8E" stroke-width="1.5" stroke-miterlimit="10" stroke-linecap="round" stroke-linejoin="round" fill="none" d="M6.1,0.9c-3,0-5.3,2.3-5.3,5.1	c0,3,2.3,5.3,5.3,5.3c2.8,0,5.1-2.3,5.1-5.3C11.2,3.2,8.8,0.9,6.1,0.9"/>
  <path stroke="#8E8E8E" stroke-width="1.5" stroke-miterlimit="10" stroke-linecap="round" stroke-linejoin="round" fill="none" d="M6,11.9v10"/>
  <path stroke="#606060" stroke-width="1" stroke-miterlimit="10" stroke-linecap="round" stroke-linejoin="round" fill="none" d="M8.2,8.7L3.5,3.4v3"/>
  <path stroke="#606060" stroke-width="1" stroke-miterlimit="10" stroke-linecap="round" stroke-linejoin="round" fill="none" d="M3.5,3.4h3"/>
  
</svg>