<svg xmlns="http://www.w3.org/2000/svg" width="13.4" height="13.3">

  <path class="ind" fill="#DDDDDC" d="M3.9,7.6C2.3,5,1,2.8,0.9,2.7L0.8,2.5l0.6-0.3c1.3-0.6,2.6-1,4-1.2C6.1,1,8,1,8.6,1.1	c0.7,0.1,1.6,0.4,2.2,0.6c0.7,0.3,1.8,0.8,1.8,0.9c0,0.1-5.5,9.1-5.8,9.5l-0.1,0.1L3.9,7.6L3.9,7.6z"/>
  
  <path stroke="#8E8E8E" stroke-width="1.5" stroke-miterlimit="10" stroke-linecap="round" stroke-linejoin="round" fill="none" d="M0.8,3l5.9,9.6L12.6,3c0.2-0.3,0.1-0.7-0.2-0.8c-3.5-1.8-7.7-1.8-11.3,0C0.8,2.3,0.7,2.7,0.8,3z"/>
  
</svg>