<svg xmlns="http://www.w3.org/2000/svg" width="19" height="31">
 	
	<path fill="#DDDDDC" d="M.7 26.6V15.7l17.4 10.9V15.7L.7 26.6z"/>
	<path class="ind_on cmd ind_al" fill="#DDDDDC" d="M9.3 1c-3 0-5.4 2.6-5.4 5.6S6.3 12 9.3 12s5.4-2.4 5.4-5.4S12.3 1 9.3 1"/>
	<path fill="#DDDDDC" d="M9.4 21.6l-5.5 8.6h11l-5.5-8.6z"/>
  
	<path fill="none" stroke="#8E8E8E" stroke-width="1.5" stroke-miterlimit="10" stroke-linecap="round" stroke-linejoin="round" d="M9.3.8c-3 0-5.4 2.6-5.4 5.6s2.4 5.4 5.4 5.4 5.4-2.4 5.4-5.4S12.3.8 9.3.8" />
	<path fill="none" stroke="#8E8E8E" stroke-width="1.5" stroke-miterlimit="10" stroke-linecap="round" stroke-linejoin="round" d="M9.4 21.2l-.1-9.3" />
	<path fill="none" stroke="#8E8E8E" stroke-width="1.5" stroke-miterlimit="10" stroke-linecap="round" stroke-linejoin="round" d="M.8 26.6V15.7l17.4 10.9V15.7L.8 26.6z"/>
	<path fill="none" stroke="#8E8E8E" stroke-width="1.5" stroke-miterlimit="10" stroke-linecap="round" stroke-linejoin="round" d="M9.4 21.6l-5.5 8.6h11l-5.5-8.6z"/>
  
	<text fill="#606060" stroke="none" font-family="'Calibri'" font-weight="bold" x="5.582" y="8.98" font-size="8">M</text>

</svg>