<?xml version="1.0" encoding="UTF-8" standalone="no"?>
<!-- Created with Inkscape (http://www.inkscape.org/) -->

<svg
   xmlns:dc="http://purl.org/dc/elements/1.1/"
   xmlns:cc="http://creativecommons.org/ns#"
   xmlns:rdf="http://www.w3.org/1999/02/22-rdf-syntax-ns#"
   xmlns:svg="http://www.w3.org/2000/svg"
   xmlns="http://www.w3.org/2000/svg"
   xmlns:sodipodi="http://sodipodi.sourceforge.net/DTD/sodipodi-0.dtd"
   xmlns:inkscape="http://www.inkscape.org/namespaces/inkscape"
   width="33.143002"
   height="44.880001"
   viewBox="0 0 33.143002 44.880002"
   id="svg8309"
   version="1.1"
   inkscape:version="0.91 r13725"
   style="fill:none"
   sodipodi:docname="SpänningsTrafo.svg">
  <defs
     id="defs8311" />
  <sodipodi:namedview
     id="base"
     pagecolor="#ffffff"
     bordercolor="#666666"
     borderopacity="1.0"
     inkscape:pageopacity="0.0"
     inkscape:pageshadow="2"
     inkscape:zoom="7.9195959"
     inkscape:cx="13.008343"
     inkscape:cy="41.445553"
     inkscape:document-units="px"
     inkscape:current-layer="svg8309"
     showgrid="false"
     units="px"
     inkscape:window-width="1920"
     inkscape:window-height="1027"
     inkscape:window-x="-8"
     inkscape:window-y="-8"
     inkscape:window-maximized="1" />
  <metadata
     id="metadata8314">
    <rdf:RDF>
      <cc:Work
         rdf:about="">
        <dc:format>image/svg+xml</dc:format>
        <dc:type
           rdf:resource="http://purl.org/dc/dcmitype/StillImage" />
        <dc:title />
      </cc:Work>
    </rdf:RDF>
  </metadata>
  <rect width="100%" height="100%" class="bg"></rect>
  <circle
     style="fill:none;fill-opacity:1;stroke:#000000;stroke-width:1;stroke-linecap:butt;stroke-linejoin:miter;stroke-miterlimit:4;stroke-dasharray:none;stroke-opacity:1"
     id="path8414-4"
     cx="10.410715"
     cy="10.410623"
     r="9.9107151" />
  <circle
     style="fill:none;fill-opacity:1;stroke:#000000;stroke-width:1;stroke-linecap:butt;stroke-linejoin:miter;stroke-miterlimit:4;stroke-dasharray:none;stroke-opacity:1"
     id="path8414-9-8"
     cx="22.732157"
     cy="10.410623"
     r="9.9107151" />
  <circle
     style="fill:none;fill-opacity:1;stroke:#000000;stroke-width:1;stroke-linecap:butt;stroke-linejoin:miter;stroke-miterlimit:4;stroke-dasharray:none;stroke-opacity:1"
     id="path8414-9-3-5"
     cx="16.482157"
     cy="20.767677"
     r="9.9107151" />
  <path
     style="display:inline;fill:none;fill-rule:evenodd;stroke:#000000;stroke-width:1px;stroke-linecap:butt;stroke-linejoin:miter;stroke-opacity:1"
     d="m 15.982915,44.88 0,-14.1964"
     id="path8585"
     inkscape:connector-curvature="0" />
  <path
     d="M 5.2234503,18.163734 C 2.7757231,16.512525 1.2480491,13.819949 1.1076928,10.909577 0.96993055,8.0529958 1.9813941,5.533525 4.0384863,3.6092161 6.9739508,0.86323307 11.076577,0.30407097 14.744543,2.1500482 c 0.468774,0.2359199 0.852316,0.4744212 0.852316,0.5300031 0,0.055582 -0.176247,0.2679465 -0.391659,0.4719215 -0.539439,0.5107968 -1.397069,1.7351834 -1.851802,2.643707 -0.653098,1.3048406 -0.931356,2.3977106 -1.006447,3.9528616 l -0.06893,1.4274806 -0.644994,0.321783 c -0.998861,0.498324 -2.4130042,1.632582 -3.1836435,2.55354 -0.7628649,0.911666 -1.8242196,2.962261 -2.0827593,4.024002 -0.088782,0.364602 -0.1932965,0.661156 -0.2322534,0.659009 -0.038957,-0.0021 -0.4488729,-0.258927 -0.9109245,-0.570622 z"
     id="path12894"
     inkscape:connector-curvature="0"
     class="ind" />
  <path
     d="m 13.386339,10.010764 c 0.144755,-1.483508 0.458452,-2.6424518 1.014879,-3.7494405 0.565638,-1.125314 1.843765,-2.8016215 2.13614,-2.8016215 0.09007,0 0.386034,0.2414896 0.657703,0.5366436 1.477969,1.605734 2.361825,3.6112034 2.524551,5.7282071 0.04476,0.5823153 0.04918,1.0587553 0.0098,1.0587553 -0.03936,0 -0.431285,-0.09564 -0.870944,-0.212545 -1.349479,-0.358808 -4.195319,-0.274317 -5.321934,0.158006 -0.210896,0.08093 -0.222675,0.02462 -0.150213,-0.718005 z"
     id="path12896"
     inkscape:connector-curvature="0"
     class="ind" />
  <path
     d="M 26.602034,18.104264 C 26.395493,17.104292 25.357848,15.073046 24.559482,14.105858 23.77594,13.15663 22.612532,12.18626 21.630415,11.662797 L 20.90016,11.273575 20.89766,10.554933 C 20.888815,8.0141578 19.974332,5.5330827 18.321554,3.5657303 L 17.508958,2.5984715 18.541646,2.0817198 c 1.493807,-0.7474931 2.392512,-0.9516362 4.189415,-0.9516362 1.741523,0 2.672176,0.201317 4.05482,0.8771308 1.822855,0.8909815 3.275223,2.3109809 4.218929,4.1249048 1.357387,2.609066 1.399862,5.7633778 0.112794,8.3761268 -0.799951,1.623901 -2.299373,3.223804 -3.773019,4.025863 l -0.587701,0.319867 -0.15485,-0.749712 z"
     id="path12898"
     inkscape:connector-curvature="0"
     class="ind" />
  <path
     d="m 21.035922,19.611124 c -0.894441,-0.175486 -1.777797,-0.492689 -2.691107,-0.966345 l -0.850713,-0.441192 0.580791,-0.64598 c 0.319436,-0.355289 0.7506,-0.892788 0.958144,-1.194442 0.506525,-0.73621 1.294668,-2.458971 1.496426,-3.270961 l 0.163601,-0.658426 0.640192,0.342175 c 0.352105,0.188196 1.12564,0.825415 1.718966,1.416041 0.851925,0.848047 1.201422,1.312839 1.662013,2.210288 0.618781,1.205679 1.075413,2.674028 0.889419,2.860023 -0.38159,0.381589 -3.274636,0.602519 -4.567732,0.348819 z"
     id="path12900"
     inkscape:connector-curvature="0"
     class="ind" />
  <path
     d="M 9.0940018,19.67237 C 8.9551058,19.6376 8.5573583,19.553748 8.2101183,19.486031 7.2230964,19.293546 7.2140741,19.279931 7.4551906,18.34683 c 0.3716239,-1.438156 1.2578536,-2.958815 2.3926603,-4.105506 0.8435781,-0.852412 2.1553701,-1.810589 2.4852811,-1.815333 0.04532,-6.52e-4 0.206933,0.410768 0.359136,0.914266 0.418942,1.385883 1.304689,2.99623 2.163614,3.933595 0.417389,0.455507 0.728037,0.878115 0.690328,0.939129 -0.121412,0.196449 -1.8829,1.000024 -2.664136,1.215355 -0.742592,0.20468 -3.2897685,0.368773 -3.7880722,0.244034 z"
     id="path12902"
     inkscape:connector-curvature="0"
     class="ind" />
  <path
     d="M 14.505632,29.90695 C 10.92139,29.120514 8.0839341,26.238313 7.3378102,22.626096 7.1688185,21.807955 7.060764,20.376146 7.1683985,20.381256 c 0.017362,8.21e-4 0.3440832,0.08781 0.7260472,0.193292 1.2328718,0.340481 3.1719843,0.372893 4.5978063,0.07685 1.197371,-0.248608 2.919523,-0.953107 3.716354,-1.520289 l 0.335271,-0.238645 0.809865,0.489774 c 0.867457,0.524603 1.763937,0.893455 2.978207,1.225366 0.990986,0.270879 3.87466,0.269549 4.829792,-0.0022 l 0.662912,-0.188628 0,0.618172 c 0,2.209559 -1.156389,4.80164 -2.872299,6.43834 -2.274127,2.169151 -5.463837,3.088177 -8.446722,2.433687 z"
     id="path12904"
     inkscape:connector-curvature="0"
     class="ind" />
  <path
     d="m 15.746839,16.60809 c -0.88366,-1.061825 -1.471456,-2.082899 -1.852508,-3.218035 -0.434513,-1.29439 -0.401045,-1.476443 0.313568,-1.705693 0.885038,-0.283922 3.647307,-0.264546 4.640388,0.03255 0.43405,0.129853 0.789182,0.279444 0.789182,0.332425 0,0.329175 -0.607506,1.976754 -1.029522,2.792106 -0.51573,0.996408 -1.763325,2.507857 -2.070061,2.507857 -0.09581,0 -0.451785,-0.333545 -0.791047,-0.74121 z"
     id="path12906"
     inkscape:connector-curvature="0"
     class="ind" />
</svg>
