<svg xmlns="http://www.w3.org/2000/svg" width="14" height="39">

  <path fill="#DDDDDC" d="M7.1,1C4.6,1,2.6,3,2.6,5.5s2,4.5,4.5,4.5s4.5-2,4.5-4.5S9.6,1,7.1,1"/>
  <path fill="none" stroke="#8E8E8E" stroke-width="1.5" stroke-miterlimit="10" stroke-linecap="round" stroke-linejoin="round" d="M7,9.8v7"/>
  
  <text fill="#606060" stroke="none" font-family="'Calibri'" font-weight="bold" x="4.438" y="7.376" font-size="6">M</text>
  
  <path stroke="#8E8E8E" stroke-width="1.5" stroke-miterlimit="10" stroke-linecap="round" stroke-linejoin="round" fill="none" d="M7.1,1.1c-2.5,0-4.5,2-4.5,4.5s2,4.5,4.5,4.5	s4.5-2,4.5-4.5S9.6,1.1,7.1,1.1"/>
  
  <path class="ind_fault ind_al" fill="#DDDDDC" d="M1.1,17.8v18.9c0,0.6,0.5,1.1,1.1,1.1H12c0.6,0,1.1-0.5,1.1-1.1V17.8c0-0.6-0.5-1.1-1.1-1.1H2.2	C1.6,16.7,1.1,17.2,1.1,17.8z"/>
  
  <path stroke="#8E8E8E" stroke-width="1.5" stroke-miterlimit="10" stroke-linecap="round" stroke-linejoin="round" fill="none" d="M2.3,37.8h9.4c0.7,0,1.3-0.6,1.3-1.3V18.1	c0-0.7-0.6-1.3-1.3-1.3H2.3c-0.7,0-1.3,0.6-1.3,1.3v18.4C1,37.3,1.6,37.8,2.3,37.8z"/>
  <path class="damper" fill="#757575" d="M7.3,20.9H6.8c-0.2,0-0.4,0.1-0.5,0.2c-0.2,0.2-0.2,0.4-0.2,0.5v10.7c0,0.4,0.3,0.7,0.7,0.7h0.6	c0.2,0,0.4-0.1,0.5-0.2c0.2-0.2,0.2-0.3,0.2-0.5V21.6C8.1,21.3,7.7,20.9,7.3,20.9z"/>
  
  <circle class="ind_on" fill="#DDDDDC" cx="7.1" cy="27" r="1.5"/>
  
  <circle stroke="#757575" stroke-width="1" stroke-miterlimit="10" stroke-linecap="round" stroke-linejoin="round" fill="none" cx="7.1" cy="27" r="1.5"/>
  
</svg>