<?xml version="1.0" encoding="UTF-8" standalone="no"?>
<!-- Created with Inkscape (http://www.inkscape.org/) -->

<svg
   xmlns:dc="http://purl.org/dc/elements/1.1/"
   xmlns:cc="http://creativecommons.org/ns#"
   xmlns:rdf="http://www.w3.org/1999/02/22-rdf-syntax-ns#"
   xmlns:svg="http://www.w3.org/2000/svg"
   xmlns="http://www.w3.org/2000/svg"
   xmlns:sodipodi="http://sodipodi.sourceforge.net/DTD/sodipodi-0.dtd"
   xmlns:inkscape="http://www.inkscape.org/namespaces/inkscape"
   width="210mm"
   height="297mm"
   viewBox="0 0 744.09448819 1052.3622047"
   id="svg7405"
   version="1.1"
   inkscape:version="0.91 r13725"
   sodipodi:docname="ExchangeR.svg">
  <defs
     id="defs7407" />
  <sodipodi:namedview
     id="base"
     pagecolor="#ffffff"
     bordercolor="#666666"
     borderopacity="1.0"
     inkscape:pageopacity="0.0"
     inkscape:pageshadow="2"
     inkscape:zoom="1.4"
     inkscape:cx="95.366882"
     inkscape:cy="202.19151"
     inkscape:document-units="px"
     inkscape:current-layer="svg7405"
     showgrid="false"
     inkscape:window-width="1920"
     inkscape:window-height="1017"
     inkscape:window-x="1912"
     inkscape:window-y="1072"
     inkscape:window-maximized="1" />
  <metadata
     id="metadata7410">
    <rdf:RDF>
      <cc:Work
         rdf:about="">
        <dc:format>image/svg+xml</dc:format>
        <dc:type
           rdf:resource="http://purl.org/dc/dcmitype/StillImage" />
        <dc:title></dc:title>
      </cc:Work>
    </rdf:RDF>
  </metadata>
  <path
     inkscape:connector-curvature="0"
     id="path55995"
     style="display:inline;fill:none;stroke:#000000;stroke-width:1;stroke-linecap:round;stroke-linejoin:round;stroke-miterlimit:10;stroke-dasharray:none;stroke-opacity:1"
     d="m 0.50712124,1051.8551 81.60000976,0 0,-176.40002 -81.60000976,0 0,176.40002"
     class="ind" />
  <path
     inkscape:connector-curvature="0"
     id="path56003"
     style="display:inline;fill:none;stroke:#000000;stroke-width:1;stroke-linecap:round;stroke-linejoin:round;stroke-miterlimit:10;stroke-dasharray:none;stroke-opacity:1"
     d="m 62.607131,919.40507 -3.3,-5.7 -3.75,-4.2 -4.05,-2.54999 -4.2,-0.9 -4.2,0.9 -4.05,2.54999 -3.75,4.2 -3.30001,5.7 -3,6.9 -2.4,8.1 -1.8,9 -1.05,9.45 -0.3,9.75 0.3,9.9 1.05,9.45001 1.8,9 2.4,8.1 3,6.90002 3.30001,5.7 3.75,4.2 4.05,2.55 4.2,0.9 4.2,-0.9 4.05,-2.55 3.75,-4.2 0.3,-0.6" />
  <path
     inkscape:connector-curvature="0"
     id="path56005"
     style="display:inline;fill:none;stroke:#000000;stroke-width:1;stroke-linecap:round;stroke-linejoin:round;stroke-miterlimit:10;stroke-dasharray:none;stroke-opacity:1"
     d="m 48.957131,915.20507 13.65,4.2" />
  <path
     inkscape:connector-curvature="0"
     id="path56007"
     style="display:inline;fill:none;stroke:#000000;stroke-width:1;stroke-linecap:round;stroke-linejoin:round;stroke-miterlimit:10;stroke-dasharray:none;stroke-opacity:1"
     d="m 62.607131,919.40507 1.05,-12.89999" />
</svg>
