<svg xmlns="http://www.w3.org/2000/svg" width="12" height="22" style="fill:#DADADA;">

  <path class="ind" fill="#DDDDDC" d="M3.6,6.8C2.3,4.6,1.1,2.6,1.1,2.5L1,2.4l0.5-0.3c1.1-0.6,2.2-0.9,3.4-1C5.5,1,7,1,7.6,1.1	C8.2,1.2,9,1.4,9.5,1.6C10.1,1.9,11,2.3,11,2.4c0,0-4.7,8.1-4.9,8.4L6,11L3.6,6.8L3.6,6.8z"/>
  
  <path stroke="#8E8E8E" stroke-width="1.5" stroke-miterlimit="10" stroke-linecap="round" stroke-linejoin="round" fill="none" d="M1,2.8l5,8.5l5-8.5C11.1,2.5,11,2.2,10.7,2	c-3-1.6-6.5-1.6-9.5,0C0.9,2.2,0.8,2.5,1,2.8z"/>
  <line stroke="#8E8E8E" stroke-width="1.5" stroke-miterlimit="10" stroke-linecap="round" stroke-linejoin="round" fill="none" x1="6" y1="11" x2="6" y2="20.9"/>
  
</svg>